# xmcd
#
# Track frame offsets: 
#        150
#        18607
#        37844
#        55637
#        71852
#        86445
#        104377
#        123592
#        140272
#        164082
#        179585
#        199262
#
# Disc length: 2913 seconds
#
# Revision: 5
# Processed by: cddbd v1.5.2PL0 Copyright (c) Steve Scherf et al.
# Submitted via: ExactAudioCopy v0.95b3
#
DISCID=ab0b5f0c
DTITLE=Gotthard - Need To Believe [NB 2305-0]
DYEAR=2009
DGENRE=Rock
TTITLE0=Shangri La
TTITLE1=Unspoken Words
TTITLE2=Need To Believe
TTITLE3=Unconditional Faith
TTITLE4=I Don't Mind
TTITLE5=Break Away
TTITLE6=Don't Let Me Down
TTITLE7=Right From Wrong
TTITLE8=I Know, You Know
TTITLE9=Rebel Soul
TTITLE10=Tears To Cry
TTITLE11=Ain't Enough
EXTD=YEAR: 2009
EXTT0=
EXTT1=
EXTT2=
EXTT3=
EXTT4=
EXTT5=
EXTT6=
EXTT7=
EXTT8=
EXTT9=
EXTT10=
EXTT11=
PLAYORDER=
